<svg id="c0102012-1c97-4fee-9b05-a9db1ba7ea04" data-name="Layer 1" xmlns="http://www.w3.org/2000/svg" width="180" height="180" viewBox="0 0 180 180">
  <title>Artboard 5</title>
  <path d="M29.58,143a53.92,53.92,0,0,0,8.94,1q6.33,0,8.88-3.54t2.54-12.1v-87H60.12v87.15q0,12.91-4.66,18.62t-15.33,5.71a70.48,70.48,0,0,1-10.55-1Z" fill="#3cdcd8"/>
  <path d="M151.87,83.64v41A51.37,51.37,0,0,1,138.21,129a87.79,87.79,0,0,1-17.13,1.68q-13.16,0-22.72-5.4a35.45,35.45,0,0,1-14.59-15.58q-5-10.18-5-24.33t5-24.15a35.83,35.83,0,0,1,14.4-15.52q9.37-5.4,22.16-5.4A50.08,50.08,0,0,1,137.4,43.1a35.7,35.7,0,0,1,13.35,8.38l-4,7.82a45.89,45.89,0,0,0-12.6-7.88A37.5,37.5,0,0,0,120.33,49q-15,0-23,9.37t-8,27q0,18,8.19,27.37t23.84,9.37a65.25,65.25,0,0,0,21.23-3.48V91.71h-22V83.64Z" fill="#3cdcd8"/>
</svg>
